# xmcd
#
# Track frame offsets: 
#        150
#        29624
#        54374
#        82954
#        115803
#        149102
#        179213
#        207716
#        238580
#        260032
#
# Disc length: 3917 seconds
#
# Revision: 0
# Processed by: cddbd v1.5.2PL0 Copyright (c) Steve Scherf et al.
# Submitted via: ExactAudioCopy v0.90b4
#
DISCID=9e0f4b0a
DTITLE=Cotton Field Blues Band - Cotton Field Blues Band live at the O
DTITLE=ldtime Jazzfestival Speyer 2007
DYEAR=2008
DGENRE=Blues
TTITLE0=Boogie für Luis
TTITLE1=New Orleans Bayoogie-Party - Walking to New Orleans
TTITLE2=Junco Partno
TTITLE3=When Something Is Wrong With My Baby
TTITLE4=Jambalaya - Blueberry Hill
TTITLE5=Pinetops Boogie Woogie
TTITLE6=Sixty Minute Man
TTITLE7=Iko, Iko
TTITLE8=Going Up, Going Down
TTITLE9=Mo Better Blues
EXTD=
EXTT0=
EXTT1=
EXTT2=
EXTT3=
EXTT4=
EXTT5=
EXTT6=
EXTT7=
EXTT8=
EXTT9=
PLAYORDER=
